<?xml version="1.0" encoding="UTF-8"?>
<svg version="1.1" viewBox="0 0 1024 1024" width="1024" height="1024" xmlns="http://www.w3.org/2000/svg">
<path transform="translate(430,121)" d="m0 0 5 2 15 5 24 4 31 2h17l28-2 23-4 14-4 6-3 4 2 14 11 17 12 16 9 15 5 15 4 35 9 25 9 21 10 14 10 10 9 8 11 8 16 11 24 9 22 17 43 11 29 12 33 9 24-1 7-16 16-10 9-15 10-15 8-21 8-15 3-10 1h-23l-3-5-6-16-6-13-4-8-5 12-7 30-4 25-3 33v72l3 51 6 88 5 57 2 42v31l-8 6-16 7-13 4-16 4-33 4-5 1-25 1-46 1-133-1-22-1-32-4-23-5-18-6-14-7-4-4-1-6v-16l1-27 5-67 2-31 2-22 3-52 3-41 1-24v-48l-2-29-5-35-6-28-4-13-2-1-11 25-5 12-2 4h-25l-19-3-18-6-17-8-18-12-13-11-7-7-8-10 1-7 7-21 10-28 15-40 17-43 10-24 11-25 5-9 7-9 5-6 13-10 12-7 20-9 27-9 47-12 13-5 15-8 14-10 14-11z" fill="#D03146"/>
<path transform="translate(403,143)" d="m0 0h2l3 12v8l-13 6-16 7-15 7-23 12-8 6-8 8-6 9-5 11-8 25-5 28-2 19-1 60 5 44 3 26-7 16-6 13-5 13-1 2h-25l-19-3-18-6-17-8-18-12-13-11-7-7-8-10 1-7 7-21 10-28 15-40 17-43 10-24 11-25 5-9 7-9 5-6 13-10 12-7 20-9 27-9 47-12 13-5 15-8z" fill="#742130"/>
<path transform="translate(620,144)" d="m0 0 10 3 14 8 15 5 15 4 35 9 25 9 21 10 14 10 10 9 8 11 8 16 11 24 9 22 17 43 11 29 12 33 9 24-1 7-16 16-10 9-15 10-15 8-21 8-15 3-10 1h-23l-3-5-6-16-6-13-2-5v-11l4-32 2-20v-74l-5-38-8-27-8-19-9-11-11-9-12-6-19-10-25-11-12-4-1-4z" fill="#742130"/>
<path transform="translate(430,121)" d="m0 0 5 2 15 5 24 4 31 2h17l28-2 23-4 14-4 6-3 3 1-2 1 3 9 1 5v16l-3 12-9 17-9 10-9 7-14 7-11 3-12 2h-41l-14-3-13-5-11-7-10-10-8-13-5-12-2-6v-20l2-6v-7z" fill="#909190"/>
<path transform="translate(430,121)" d="m0 0 5 2 15 5 24 4 31 2h17l28-2 23-4 14-4 6-3 3 1-2 1 3 9 1 5v16l-2 6-10 1-20 4-31 3h-45l-22-2-26-4-12-3-1 3-2-6v-20l2-6v-7z" fill="#ABABAB"/>
</svg>
